# xmcd
#
# Track frame offsets: 
#        150
#        10127
#        20665
#        35568
#        47200
#        65400
#        79479
#        96341
#        108791
#        124224
#        136536
#        147249
#        164046
#        175610
#        188471
#        198150
#
# Disc length: 2909 seconds
#
# Revision: 0
# Processed by: cddbd v1.5.1PL2 Copyright (c) Steve Scherf et al.
# Submitted via: ExactAudioCopy v0.95a5
#
DISCID=d60b5b10
DTITLE=Lost Lake Effect Band - Nail That Catfish
DYEAR=2003
DGENRE=Bluegrass
TTITLE0=Over the Waterfall
TTITLE1=Gary Owens Jig
TTITLE2=Reunion
TTITLE3=Captain Bundy's Gospel Ship
TTITLE4=Rose of Sharon
TTITLE5=John Ryan's Polka
TTITLE6=Under the double Eagle
TTITLE7=The Roseville Fair
TTITLE8=Medley Dancing Bear -  Missouri
TTITLE9=Steel Guitar Rag
TTITLE10=Cripple Creek
TTITLE11=Friend for Life
TTITLE12=Down Yonder
TTITLE13=Spanish Two Step
TTITLE14=Nail That Catfish to A Tree
TTITLE15=Ashokan Farewell
EXTD=
EXTT0=
EXTT1=
EXTT2=
EXTT3=
EXTT4=
EXTT5=
EXTT6=
EXTT7=
EXTT8=
EXTT9=
EXTT10=
EXTT11=
EXTT12=
EXTT13=
EXTT14=
EXTT15=
PLAYORDER=
